<svg width="124" height="80" viewBox="0 0 124 80" fill="none" xmlns="http://www.w3.org/2000/svg">
<path d="M17.885 70.876C14.819 70.876 12.1423 70.219 9.855 68.905C7.56767 67.5423 5.79133 65.6687 4.526 63.284C3.26067 60.8507 2.628 58.0037 2.628 54.743C2.628 51.239 3.358 48.1 4.818 45.326C6.32667 42.5033 8.34633 40.2647 10.877 38.61C13.4563 36.9553 16.3277 36.128 19.491 36.128C21.0483 36.128 22.4597 36.2497 23.725 36.493C25.039 36.6877 26.0853 36.9067 26.864 37.15C27.6427 37.3933 28.032 37.515 28.032 37.515L28.251 38.026C28.251 38.026 28.1293 38.464 27.886 39.34C27.6913 40.216 27.4723 41.4327 27.229 42.99C26.9857 44.4987 26.8153 46.202 26.718 48.1L23.725 48.319V46.056C23.725 44.2553 23.1653 42.8197 22.046 41.749C20.9753 40.6297 19.5397 40.07 17.739 40.07C14.7703 40.07 12.483 41.1407 10.877 43.282C9.271 45.3747 8.468 48.3677 8.468 52.261C8.468 56.495 9.344 59.853 11.096 62.335C12.8967 64.7683 15.33 65.985 18.396 65.985C19.7587 65.985 21.0727 65.7903 22.338 65.401C23.6033 64.963 24.6253 64.5493 25.404 64.16C26.2313 63.7707 26.645 63.576 26.645 63.576L27.083 63.722L27.886 65.985C27.886 65.985 27.5453 66.2283 26.864 66.715C26.1827 67.2017 25.3067 67.7857 24.236 68.467C23.1653 69.0997 22.046 69.6593 20.878 70.146C19.7587 70.6327 18.761 70.876 17.885 70.876ZM32.9105 70.876L33.2025 67.883C34.6138 67.4937 35.5871 67.007 36.1225 66.423C36.7065 65.7903 37.0471 64.963 37.1445 63.941C37.2418 62.919 37.2905 61.6537 37.2905 60.145V24.302C37.2905 23.0853 37.1688 22.2093 36.9255 21.674C36.7308 21.09 36.3171 20.725 35.6845 20.579C35.1005 20.433 34.2001 20.433 32.9835 20.579L32.7645 20.433L33.0565 17.951C34.8571 17.7077 36.6578 17.4157 38.4585 17.075C40.2591 16.7343 42.0598 16.3207 43.8605 15.834L44.2985 16.783C44.1038 17.1237 43.9091 18.243 43.7145 20.141C43.5198 21.9903 43.3251 24.448 43.1305 27.514C42.9845 30.5313 42.8385 33.9623 42.6925 37.807C42.5465 41.6517 42.4248 45.7153 42.3275 49.998C42.2788 54.2807 42.2545 58.5633 42.2545 62.846C42.2545 64.306 42.4491 65.3523 42.8385 65.985C43.2278 66.6177 43.8848 66.934 44.8095 66.934L47.3645 66.788L47.5105 67.08L46.9265 70.219C46.1478 70.1703 45.1015 70.1217 43.7875 70.073C42.5221 70.0243 41.4028 70 40.4295 70C39.5535 70 38.4341 70.073 37.0715 70.219C35.7575 70.4137 34.3705 70.6327 32.9105 70.876ZM66.7197 70.876C63.6537 70.876 60.9771 70.1947 58.6897 68.832C56.4024 67.4693 54.6017 65.5957 53.2877 63.211C52.0224 60.7777 51.3897 57.955 51.3897 54.743C51.3897 52.261 51.8034 49.9007 52.6307 47.662C53.5067 45.4233 54.6991 43.4523 56.2077 41.749C57.7164 39.997 59.4197 38.6343 61.3177 37.661C63.2644 36.639 65.3327 36.128 67.5227 36.128C74.7741 36.128 78.3997 39.6563 78.3997 46.713C78.3997 47.3457 78.3511 48.0027 78.2537 48.684C78.1564 49.3653 78.0591 49.9007 77.9617 50.29L77.0127 51.166H56.8647C56.8161 55.4973 57.5947 58.9283 59.2007 61.459C60.8554 63.941 63.1671 65.401 66.1357 65.839C69.1044 66.2283 72.6084 65.4983 76.6477 63.649L77.0857 63.795L77.8887 65.912C76.9154 66.5933 75.7474 67.3233 74.3847 68.102C73.0707 68.8807 71.7324 69.5377 70.3697 70.073C69.0071 70.6083 67.7904 70.876 66.7197 70.876ZM57.1567 48.465L70.3697 47.808C71.0997 47.7107 71.5864 47.5403 71.8297 47.297C72.0731 47.0537 72.1947 46.567 72.1947 45.837C72.1947 43.8903 71.6594 42.406 70.5887 41.384C69.5667 40.362 68.0824 39.851 66.1357 39.851C63.8971 39.851 61.9504 40.6297 60.2957 42.187C58.6411 43.6957 57.5947 45.7883 57.1567 48.465ZM63.5077 31.967L62.8507 31.821L61.3907 30.434C62.7047 29.0227 63.9944 27.587 65.2597 26.127C66.5737 24.6183 67.7661 23.2557 68.8367 22.039C69.9074 20.7737 70.7591 19.7517 71.3917 18.973C72.0244 18.1943 72.3407 17.805 72.3407 17.805L73.0707 17.951L75.8447 20.944L75.7717 21.747C75.7717 21.747 75.1634 22.2093 73.9467 23.134C72.7787 24.0587 71.2457 25.2997 69.3477 26.857C67.4984 28.4143 65.5517 30.1177 63.5077 31.967ZM98.2734 70.876C95.4994 70.876 93.0417 70.1947 90.9004 68.832C88.7591 67.4693 87.0801 65.5713 85.8634 63.138C84.6954 60.656 84.1114 57.8333 84.1114 54.67C84.1114 51.166 84.8414 48.027 86.3014 45.253C87.8101 42.4303 89.8541 40.216 92.4334 38.61C95.0127 36.9553 97.8841 36.128 101.047 36.128C103.821 36.128 106.279 36.8093 108.42 38.172C110.562 39.5347 112.216 41.4327 113.384 43.866C114.601 46.2993 115.209 49.122 115.209 52.334C115.209 55.7893 114.455 58.9283 112.946 61.751C111.486 64.5737 109.467 66.8123 106.887 68.467C104.357 70.073 101.485 70.876 98.2734 70.876ZM100.317 67.299C103.043 67.299 105.208 66.204 106.814 64.014C108.42 61.7753 109.223 58.758 109.223 54.962C109.223 52.042 108.785 49.4627 107.909 47.224C107.033 44.9853 105.817 43.2333 104.259 41.968C102.702 40.7027 100.901 40.07 98.8574 40.07C96.1321 40.07 93.9664 41.1893 92.3604 43.428C90.7544 45.6667 89.9514 48.7083 89.9514 52.553C89.9514 55.473 90.3894 58.0523 91.2654 60.291C92.1414 62.481 93.3581 64.2087 94.9154 65.474C96.4727 66.6907 98.2734 67.299 100.317 67.299Z" fill="white"/>
<path d="M19.885 69.876C16.819 69.876 14.1423 69.219 11.855 67.905C9.56767 66.5423 7.79133 64.6687 6.526 62.284C5.26067 59.8507 4.628 57.0037 4.628 53.743C4.628 50.239 5.358 47.1 6.818 44.326C8.32667 41.5033 10.3463 39.2647 12.877 37.61C15.4563 35.9553 18.3277 35.128 21.491 35.128C23.0483 35.128 24.4597 35.2497 25.725 35.493C27.039 35.6877 28.0853 35.9067 28.864 36.15C29.6427 36.3933 30.032 36.515 30.032 36.515L30.251 37.026C30.251 37.026 30.1293 37.464 29.886 38.34C29.6913 39.216 29.4723 40.4327 29.229 41.99C28.9857 43.4987 28.8153 45.202 28.718 47.1L25.725 47.319V45.056C25.725 43.2553 25.1653 41.8197 24.046 40.749C22.9753 39.6297 21.5397 39.07 19.739 39.07C16.7703 39.07 14.483 40.1407 12.877 42.282C11.271 44.3747 10.468 47.3677 10.468 51.261C10.468 55.495 11.344 58.853 13.096 61.335C14.8967 63.7683 17.33 64.985 20.396 64.985C21.7587 64.985 23.0727 64.7903 24.338 64.401C25.6033 63.963 26.6253 63.5493 27.404 63.16C28.2313 62.7707 28.645 62.576 28.645 62.576L29.083 62.722L29.886 64.985C29.886 64.985 29.5453 65.2283 28.864 65.715C28.1827 66.2017 27.3067 66.7857 26.236 67.467C25.1653 68.0997 24.046 68.6593 22.878 69.146C21.7587 69.6327 20.761 69.876 19.885 69.876ZM34.9105 69.876L35.2025 66.883C36.6138 66.4937 37.5871 66.007 38.1225 65.423C38.7065 64.7903 39.0471 63.963 39.1445 62.941C39.2418 61.919 39.2905 60.6537 39.2905 59.145V23.302C39.2905 22.0853 39.1688 21.2093 38.9255 20.674C38.7308 20.09 38.3171 19.725 37.6845 19.579C37.1005 19.433 36.2001 19.433 34.9835 19.579L34.7645 19.433L35.0565 16.951C36.8571 16.7077 38.6578 16.4157 40.4585 16.075C42.2591 15.7343 44.0598 15.3207 45.8605 14.834L46.2985 15.783C46.1038 16.1237 45.9091 17.243 45.7145 19.141C45.5198 20.9903 45.3251 23.448 45.1305 26.514C44.9845 29.5313 44.8385 32.9623 44.6925 36.807C44.5465 40.6517 44.4248 44.7153 44.3275 48.998C44.2788 53.2807 44.2545 57.5633 44.2545 61.846C44.2545 63.306 44.4491 64.3523 44.8385 64.985C45.2278 65.6177 45.8848 65.934 46.8095 65.934L49.3645 65.788L49.5105 66.08L48.9265 69.219C48.1478 69.1703 47.1015 69.1217 45.7875 69.073C44.5221 69.0243 43.4028 69 42.4295 69C41.5535 69 40.4341 69.073 39.0715 69.219C37.7575 69.4137 36.3705 69.6327 34.9105 69.876ZM68.7197 69.876C65.6537 69.876 62.9771 69.1947 60.6897 67.832C58.4024 66.4693 56.6017 64.5957 55.2877 62.211C54.0224 59.7777 53.3897 56.955 53.3897 53.743C53.3897 51.261 53.8034 48.9007 54.6307 46.662C55.5067 44.4233 56.6991 42.4523 58.2077 40.749C59.7164 38.997 61.4197 37.6343 63.3177 36.661C65.2644 35.639 67.3327 35.128 69.5227 35.128C76.7741 35.128 80.3997 38.6563 80.3997 45.713C80.3997 46.3457 80.3511 47.0027 80.2537 47.684C80.1564 48.3653 80.0591 48.9007 79.9617 49.29L79.0127 50.166H58.8647C58.8161 54.4973 59.5947 57.9283 61.2007 60.459C62.8554 62.941 65.1671 64.401 68.1357 64.839C71.1044 65.2283 74.6084 64.4983 78.6477 62.649L79.0857 62.795L79.8887 64.912C78.9154 65.5933 77.7474 66.3233 76.3847 67.102C75.0707 67.8807 73.7324 68.5377 72.3697 69.073C71.0071 69.6083 69.7904 69.876 68.7197 69.876ZM59.1567 47.465L72.3697 46.808C73.0997 46.7107 73.5864 46.5403 73.8297 46.297C74.0731 46.0537 74.1947 45.567 74.1947 44.837C74.1947 42.8903 73.6594 41.406 72.5887 40.384C71.5667 39.362 70.0824 38.851 68.1357 38.851C65.8971 38.851 63.9504 39.6297 62.2957 41.187C60.6411 42.6957 59.5947 44.7883 59.1567 47.465ZM65.5077 30.967L64.8507 30.821L63.3907 29.434C64.7047 28.0227 65.9944 26.587 67.2597 25.127C68.5737 23.6183 69.7661 22.2557 70.8367 21.039C71.9074 19.7737 72.7591 18.7517 73.3917 17.973C74.0244 17.1943 74.3407 16.805 74.3407 16.805L75.0707 16.951L77.8447 19.944L77.7717 20.747C77.7717 20.747 77.1634 21.2093 75.9467 22.134C74.7787 23.0587 73.2457 24.2997 71.3477 25.857C69.4984 27.4143 67.5517 29.1177 65.5077 30.967ZM100.273 69.876C97.4994 69.876 95.0417 69.1947 92.9004 67.832C90.7591 66.4693 89.0801 64.5713 87.8634 62.138C86.6954 59.656 86.1114 56.8333 86.1114 53.67C86.1114 50.166 86.8414 47.027 88.3014 44.253C89.8101 41.4303 91.8541 39.216 94.4334 37.61C97.0127 35.9553 99.8841 35.128 103.047 35.128C105.821 35.128 108.279 35.8093 110.42 37.172C112.562 38.5347 114.216 40.4327 115.384 42.866C116.601 45.2993 117.209 48.122 117.209 51.334C117.209 54.7893 116.455 57.9283 114.946 60.751C113.486 63.5737 111.467 65.8123 108.887 67.467C106.357 69.073 103.485 69.876 100.273 69.876ZM102.317 66.299C105.043 66.299 107.208 65.204 108.814 63.014C110.42 60.7753 111.223 57.758 111.223 53.962C111.223 51.042 110.785 48.4627 109.909 46.224C109.033 43.9853 107.817 42.2333 106.259 40.968C104.702 39.7027 102.901 39.07 100.857 39.07C98.1321 39.07 95.9664 40.1893 94.3604 42.428C92.7544 44.6667 91.9514 47.7083 91.9514 51.553C91.9514 54.473 92.3894 57.0523 93.2654 59.291C94.1414 61.481 95.3581 63.2087 96.9154 64.474C98.4727 65.6907 100.273 66.299 102.317 66.299Z" fill="#0E0E0E"/>
</svg>
