<svg width="125" height="91" viewBox="0 0 125 91" fill="none" xmlns="http://www.w3.org/2000/svg">
<path d="M17.885 69.876C14.819 69.876 12.1423 69.219 9.855 67.905C7.56767 66.5423 5.79133 64.6687 4.526 62.284C3.26067 59.8507 2.628 57.0037 2.628 53.743C2.628 50.239 3.358 47.1 4.818 44.326C6.32667 41.5033 8.34633 39.2647 10.877 37.61C13.4563 35.9553 16.3277 35.128 19.491 35.128C21.0483 35.128 22.4597 35.2497 23.725 35.493C25.039 35.6877 26.0853 35.9067 26.864 36.15C27.6427 36.3933 28.032 36.515 28.032 36.515L28.251 37.026C28.251 37.026 28.1293 37.464 27.886 38.34C27.6913 39.216 27.4723 40.4327 27.229 41.99C26.9857 43.4987 26.8153 45.202 26.718 47.1L23.725 47.319V45.056C23.725 43.2553 23.1653 41.8197 22.046 40.749C20.9753 39.6297 19.5397 39.07 17.739 39.07C14.7703 39.07 12.483 40.1407 10.877 42.282C9.271 44.3747 8.468 47.3677 8.468 51.261C8.468 55.495 9.344 58.853 11.096 61.335C12.8967 63.7683 15.33 64.985 18.396 64.985C19.7587 64.985 21.0727 64.7903 22.338 64.401C23.6033 63.963 24.6253 63.5493 25.404 63.16C26.2313 62.7707 26.645 62.576 26.645 62.576L27.083 62.722L27.886 64.985C27.886 64.985 27.5453 65.2283 26.864 65.715C26.1827 66.2017 25.3067 66.7857 24.236 67.467C23.1653 68.0997 22.046 68.6593 20.878 69.146C19.7587 69.6327 18.761 69.876 17.885 69.876ZM32.9105 69.876L33.2025 66.883C34.6138 66.4937 35.5871 66.007 36.1225 65.423C36.7065 64.7903 37.0471 63.963 37.1445 62.941C37.2418 61.919 37.2905 60.6537 37.2905 59.145V23.302C37.2905 22.0853 37.1688 21.2093 36.9255 20.674C36.7308 20.09 36.3171 19.725 35.6845 19.579C35.1005 19.433 34.2001 19.433 32.9835 19.579L32.7645 19.433L33.0565 16.951C34.8571 16.7077 36.6578 16.4157 38.4585 16.075C40.2591 15.7343 42.0598 15.3207 43.8605 14.834L44.2985 15.783C44.1038 16.1237 43.9091 17.243 43.7145 19.141C43.5198 20.9903 43.3251 23.448 43.1305 26.514C42.9845 29.5313 42.8385 32.9623 42.6925 36.807C42.5465 40.6517 42.4248 44.7153 42.3275 48.998C42.2788 53.2807 42.2545 57.5633 42.2545 61.846C42.2545 63.306 42.4491 64.3523 42.8385 64.985C43.2278 65.6177 43.8848 65.934 44.8095 65.934L47.3645 65.788L47.5105 66.08L46.9265 69.219C46.1478 69.1703 45.1015 69.1217 43.7875 69.073C42.5221 69.0243 41.4028 69 40.4295 69C39.5535 69 38.4341 69.073 37.0715 69.219C35.7575 69.4137 34.3705 69.6327 32.9105 69.876ZM66.7197 69.876C63.6537 69.876 60.9771 69.1947 58.6897 67.832C56.4024 66.4693 54.6017 64.5957 53.2877 62.211C52.0224 59.7777 51.3897 56.955 51.3897 53.743C51.3897 51.261 51.8034 48.9007 52.6307 46.662C53.5067 44.4233 54.6991 42.4523 56.2077 40.749C57.7164 38.997 59.4197 37.6343 61.3177 36.661C63.2644 35.639 65.3327 35.128 67.5227 35.128C74.7741 35.128 78.3997 38.6563 78.3997 45.713C78.3997 46.3457 78.3511 47.0027 78.2537 47.684C78.1564 48.3653 78.0591 48.9007 77.9617 49.29L77.0127 50.166H56.8647C56.8161 54.4973 57.5947 57.9283 59.2007 60.459C60.8554 62.941 63.1671 64.401 66.1357 64.839C69.1044 65.2283 72.6084 64.4983 76.6477 62.649L77.0857 62.795L77.8887 64.912C76.9154 65.5933 75.7474 66.3233 74.3847 67.102C73.0707 67.8807 71.7324 68.5377 70.3697 69.073C69.0071 69.6083 67.7904 69.876 66.7197 69.876ZM57.1567 47.465L70.3697 46.808C71.0997 46.7107 71.5864 46.5403 71.8297 46.297C72.0731 46.0537 72.1947 45.567 72.1947 44.837C72.1947 42.8903 71.6594 41.406 70.5887 40.384C69.5667 39.362 68.0824 38.851 66.1357 38.851C63.8971 38.851 61.9504 39.6297 60.2957 41.187C58.6411 42.6957 57.5947 44.7883 57.1567 47.465ZM63.5077 30.967L62.8507 30.821L61.3907 29.434C62.7047 28.0227 63.9944 26.587 65.2597 25.127C66.5737 23.6183 67.7661 22.2557 68.8367 21.039C69.9074 19.7737 70.7591 18.7517 71.3917 17.973C72.0244 17.1943 72.3407 16.805 72.3407 16.805L73.0707 16.951L75.8447 19.944L75.7717 20.747C75.7717 20.747 75.1634 21.2093 73.9467 22.134C72.7787 23.0587 71.2457 24.2997 69.3477 25.857C67.4984 27.4143 65.5517 29.1177 63.5077 30.967ZM98.2734 69.876C95.4994 69.876 93.0417 69.1947 90.9004 67.832C88.7591 66.4693 87.0801 64.5713 85.8634 62.138C84.6954 59.656 84.1114 56.8333 84.1114 53.67C84.1114 50.166 84.8414 47.027 86.3014 44.253C87.8101 41.4303 89.8541 39.216 92.4334 37.61C95.0127 35.9553 97.8841 35.128 101.047 35.128C103.821 35.128 106.279 35.8093 108.42 37.172C110.562 38.5347 112.216 40.4327 113.384 42.866C114.601 45.2993 115.209 48.122 115.209 51.334C115.209 54.7893 114.455 57.9283 112.946 60.751C111.486 63.5737 109.467 65.8123 106.887 67.467C104.357 69.073 101.485 69.876 98.2734 69.876ZM100.317 66.299C103.043 66.299 105.208 65.204 106.814 63.014C108.42 60.7753 109.223 57.758 109.223 53.962C109.223 51.042 108.785 48.4627 107.909 46.224C107.033 43.9853 105.817 42.2333 104.259 40.968C102.702 39.7027 100.901 39.07 98.8574 39.07C96.1321 39.07 93.9664 40.1893 92.3604 42.428C90.7544 44.6667 89.9514 47.7083 89.9514 51.553C89.9514 54.473 90.3894 57.0523 91.2654 59.291C92.1414 61.481 93.3581 63.2087 94.9154 64.474C96.4727 65.6907 98.2734 66.299 100.317 66.299Z" fill="white"/>
<path d="M20.885 69.876C17.819 69.876 15.1423 69.219 12.855 67.905C10.5677 66.5423 8.79133 64.6687 7.526 62.284C6.26067 59.8507 5.628 57.0037 5.628 53.743C5.628 50.239 6.358 47.1 7.818 44.326C9.32667 41.5033 11.3463 39.2647 13.877 37.61C16.4563 35.9553 19.3277 35.128 22.491 35.128C24.0483 35.128 25.4597 35.2497 26.725 35.493C28.039 35.6877 29.0853 35.9067 29.864 36.15C30.6427 36.3933 31.032 36.515 31.032 36.515L31.251 37.026C31.251 37.026 31.1293 37.464 30.886 38.34C30.6913 39.216 30.4723 40.4327 30.229 41.99C29.9857 43.4987 29.8153 45.202 29.718 47.1L26.725 47.319V45.056C26.725 43.2553 26.1653 41.8197 25.046 40.749C23.9753 39.6297 22.5397 39.07 20.739 39.07C17.7703 39.07 15.483 40.1407 13.877 42.282C12.271 44.3747 11.468 47.3677 11.468 51.261C11.468 55.495 12.344 58.853 14.096 61.335C15.8967 63.7683 18.33 64.985 21.396 64.985C22.7587 64.985 24.0727 64.7903 25.338 64.401C26.6033 63.963 27.6253 63.5493 28.404 63.16C29.2313 62.7707 29.645 62.576 29.645 62.576L30.083 62.722L30.886 64.985C30.886 64.985 30.5453 65.2283 29.864 65.715C29.1827 66.2017 28.3067 66.7857 27.236 67.467C26.1653 68.0997 25.046 68.6593 23.878 69.146C22.7587 69.6327 21.761 69.876 20.885 69.876ZM35.9105 69.876L36.2025 66.883C37.6138 66.4937 38.5871 66.007 39.1225 65.423C39.7065 64.7903 40.0471 63.963 40.1445 62.941C40.2418 61.919 40.2905 60.6537 40.2905 59.145V23.302C40.2905 22.0853 40.1688 21.2093 39.9255 20.674C39.7308 20.09 39.3171 19.725 38.6845 19.579C38.1005 19.433 37.2001 19.433 35.9835 19.579L35.7645 19.433L36.0565 16.951C37.8571 16.7077 39.6578 16.4157 41.4585 16.075C43.2591 15.7343 45.0598 15.3207 46.8605 14.834L47.2985 15.783C47.1038 16.1237 46.9091 17.243 46.7145 19.141C46.5198 20.9903 46.3251 23.448 46.1305 26.514C45.9845 29.5313 45.8385 32.9623 45.6925 36.807C45.5465 40.6517 45.4248 44.7153 45.3275 48.998C45.2788 53.2807 45.2545 57.5633 45.2545 61.846C45.2545 63.306 45.4491 64.3523 45.8385 64.985C46.2278 65.6177 46.8848 65.934 47.8095 65.934L50.3645 65.788L50.5105 66.08L49.9265 69.219C49.1478 69.1703 48.1015 69.1217 46.7875 69.073C45.5221 69.0243 44.4028 69 43.4295 69C42.5535 69 41.4341 69.073 40.0715 69.219C38.7575 69.4137 37.3705 69.6327 35.9105 69.876ZM69.7197 69.876C66.6537 69.876 63.9771 69.1947 61.6897 67.832C59.4024 66.4693 57.6017 64.5957 56.2877 62.211C55.0224 59.7777 54.3897 56.955 54.3897 53.743C54.3897 51.261 54.8034 48.9007 55.6307 46.662C56.5067 44.4233 57.6991 42.4523 59.2077 40.749C60.7164 38.997 62.4197 37.6343 64.3177 36.661C66.2644 35.639 68.3327 35.128 70.5227 35.128C77.7741 35.128 81.3997 38.6563 81.3997 45.713C81.3997 46.3457 81.3511 47.0027 81.2537 47.684C81.1564 48.3653 81.0591 48.9007 80.9617 49.29L80.0127 50.166H59.8647C59.8161 54.4973 60.5947 57.9283 62.2007 60.459C63.8554 62.941 66.1671 64.401 69.1357 64.839C72.1044 65.2283 75.6084 64.4983 79.6477 62.649L80.0857 62.795L80.8887 64.912C79.9154 65.5933 78.7474 66.3233 77.3847 67.102C76.0707 67.8807 74.7324 68.5377 73.3697 69.073C72.0071 69.6083 70.7904 69.876 69.7197 69.876ZM60.1567 47.465L73.3697 46.808C74.0997 46.7107 74.5864 46.5403 74.8297 46.297C75.0731 46.0537 75.1947 45.567 75.1947 44.837C75.1947 42.8903 74.6594 41.406 73.5887 40.384C72.5667 39.362 71.0824 38.851 69.1357 38.851C66.8971 38.851 64.9504 39.6297 63.2957 41.187C61.6411 42.6957 60.5947 44.7883 60.1567 47.465ZM66.5077 30.967L65.8507 30.821L64.3907 29.434C65.7047 28.0227 66.9944 26.587 68.2597 25.127C69.5737 23.6183 70.7661 22.2557 71.8367 21.039C72.9074 19.7737 73.7591 18.7517 74.3917 17.973C75.0244 17.1943 75.3407 16.805 75.3407 16.805L76.0707 16.951L78.8447 19.944L78.7717 20.747C78.7717 20.747 78.1634 21.2093 76.9467 22.134C75.7787 23.0587 74.2457 24.2997 72.3477 25.857C70.4984 27.4143 68.5517 29.1177 66.5077 30.967ZM101.273 69.876C98.4994 69.876 96.0417 69.1947 93.9004 67.832C91.7591 66.4693 90.0801 64.5713 88.8634 62.138C87.6954 59.656 87.1114 56.8333 87.1114 53.67C87.1114 50.166 87.8414 47.027 89.3014 44.253C90.8101 41.4303 92.8541 39.216 95.4334 37.61C98.0127 35.9553 100.884 35.128 104.047 35.128C106.821 35.128 109.279 35.8093 111.42 37.172C113.562 38.5347 115.216 40.4327 116.384 42.866C117.601 45.2993 118.209 48.122 118.209 51.334C118.209 54.7893 117.455 57.9283 115.946 60.751C114.486 63.5737 112.467 65.8123 109.887 67.467C107.357 69.073 104.485 69.876 101.273 69.876ZM103.317 66.299C106.043 66.299 108.208 65.204 109.814 63.014C111.42 60.7753 112.223 57.758 112.223 53.962C112.223 51.042 111.785 48.4627 110.909 46.224C110.033 43.9853 108.817 42.2333 107.259 40.968C105.702 39.7027 103.901 39.07 101.857 39.07C99.1321 39.07 96.9664 40.1893 95.3604 42.428C93.7544 44.6667 92.9514 47.7083 92.9514 51.553C92.9514 54.473 93.3894 57.0523 94.2654 59.291C95.1414 61.481 96.3581 63.2087 97.9154 64.474C99.4727 65.6907 101.273 66.299 103.317 66.299Z" fill="#0E0E0E"/>
</svg>
