<svg width="114" height="56" viewBox="0 0 114 56" fill="none" xmlns="http://www.w3.org/2000/svg">
<path d="M15.885 55.876C12.819 55.876 10.1423 55.219 7.855 53.905C5.56767 52.5423 3.79133 50.6687 2.526 48.284C1.26067 45.8507 0.628 43.0037 0.628 39.743C0.628 36.239 1.358 33.1 2.818 30.326C4.32667 27.5033 6.34633 25.2647 8.877 23.61C11.4563 21.9553 14.3277 21.128 17.491 21.128C19.0483 21.128 20.4597 21.2497 21.725 21.493C23.039 21.6877 24.0853 21.9067 24.864 22.15C25.6427 22.3933 26.032 22.515 26.032 22.515L26.251 23.026C26.251 23.026 26.1293 23.464 25.886 24.34C25.6913 25.216 25.4723 26.4327 25.229 27.99C24.9857 29.4987 24.8153 31.202 24.718 33.1L21.725 33.319V31.056C21.725 29.2553 21.1653 27.8197 20.046 26.749C18.9753 25.6297 17.5397 25.07 15.739 25.07C12.7703 25.07 10.483 26.1407 8.877 28.282C7.271 30.3747 6.468 33.3677 6.468 37.261C6.468 41.495 7.344 44.853 9.096 47.335C10.8967 49.7683 13.33 50.985 16.396 50.985C17.7587 50.985 19.0727 50.7903 20.338 50.401C21.6033 49.963 22.6253 49.5493 23.404 49.16C24.2313 48.7707 24.645 48.576 24.645 48.576L25.083 48.722L25.886 50.985C25.886 50.985 25.5453 51.2283 24.864 51.715C24.1827 52.2017 23.3067 52.7857 22.236 53.467C21.1653 54.0997 20.046 54.6593 18.878 55.146C17.7587 55.6327 16.761 55.876 15.885 55.876ZM30.9105 55.876L31.2025 52.883C32.6138 52.4937 33.5871 52.007 34.1225 51.423C34.7065 50.7903 35.0471 49.963 35.1445 48.941C35.2418 47.919 35.2905 46.6537 35.2905 45.145V9.302C35.2905 8.08533 35.1688 7.20933 34.9255 6.674C34.7308 6.09 34.3171 5.725 33.6845 5.579C33.1005 5.433 32.2001 5.433 30.9835 5.579L30.7645 5.433L31.0565 2.951C32.8571 2.70766 34.6578 2.41566 36.4585 2.075C38.2591 1.73433 40.0598 1.32066 41.8605 0.833997L42.2985 1.783C42.1038 2.12366 41.9091 3.243 41.7145 5.141C41.5198 6.99033 41.3251 9.448 41.1305 12.514C40.9845 15.5313 40.8385 18.9623 40.6925 22.807C40.5465 26.6517 40.4248 30.7153 40.3275 34.998C40.2788 39.2807 40.2545 43.5633 40.2545 47.846C40.2545 49.306 40.4491 50.3523 40.8385 50.985C41.2278 51.6177 41.8848 51.934 42.8095 51.934L45.3645 51.788L45.5105 52.08L44.9265 55.219C44.1478 55.1703 43.1015 55.1217 41.7875 55.073C40.5221 55.0243 39.4028 55 38.4295 55C37.5535 55 36.4341 55.073 35.0715 55.219C33.7575 55.4137 32.3705 55.6327 30.9105 55.876ZM64.7197 55.876C61.6537 55.876 58.9771 55.1947 56.6897 53.832C54.4024 52.4693 52.6017 50.5957 51.2877 48.211C50.0224 45.7777 49.3897 42.955 49.3897 39.743C49.3897 37.261 49.8034 34.9007 50.6307 32.662C51.5067 30.4233 52.6991 28.4523 54.2077 26.749C55.7164 24.997 57.4197 23.6343 59.3177 22.661C61.2644 21.639 63.3327 21.128 65.5227 21.128C72.7741 21.128 76.3997 24.6563 76.3997 31.713C76.3997 32.3457 76.3511 33.0027 76.2537 33.684C76.1564 34.3653 76.0591 34.9007 75.9617 35.29L75.0127 36.166H54.8647C54.8161 40.4973 55.5947 43.9283 57.2007 46.459C58.8554 48.941 61.1671 50.401 64.1357 50.839C67.1044 51.2283 70.6084 50.4983 74.6477 48.649L75.0857 48.795L75.8887 50.912C74.9154 51.5933 73.7474 52.3233 72.3847 53.102C71.0707 53.8807 69.7324 54.5377 68.3697 55.073C67.0071 55.6083 65.7904 55.876 64.7197 55.876ZM55.1567 33.465L68.3697 32.808C69.0997 32.7107 69.5864 32.5403 69.8297 32.297C70.0731 32.0537 70.1947 31.567 70.1947 30.837C70.1947 28.8903 69.6594 27.406 68.5887 26.384C67.5667 25.362 66.0824 24.851 64.1357 24.851C61.8971 24.851 59.9504 25.6297 58.2957 27.187C56.6411 28.6957 55.5947 30.7883 55.1567 33.465ZM61.5077 16.967L60.8507 16.821L59.3907 15.434C60.7047 14.0227 61.9944 12.587 63.2597 11.127C64.5737 9.61833 65.7661 8.25567 66.8367 7.039C67.9074 5.77367 68.7591 4.75166 69.3917 3.973C70.0244 3.19433 70.3407 2.805 70.3407 2.805L71.0707 2.951L73.8447 5.944L73.7717 6.747C73.7717 6.747 73.1634 7.20933 71.9467 8.134C70.7787 9.05866 69.2457 10.2997 67.3477 11.857C65.4984 13.4143 63.5517 15.1177 61.5077 16.967ZM96.2734 55.876C93.4994 55.876 91.0417 55.1947 88.9004 53.832C86.7591 52.4693 85.0801 50.5713 83.8634 48.138C82.6954 45.656 82.1114 42.8333 82.1114 39.67C82.1114 36.166 82.8414 33.027 84.3014 30.253C85.8101 27.4303 87.8541 25.216 90.4334 23.61C93.0127 21.9553 95.8841 21.128 99.0474 21.128C101.821 21.128 104.279 21.8093 106.42 23.172C108.562 24.5347 110.216 26.4327 111.384 28.866C112.601 31.2993 113.209 34.122 113.209 37.334C113.209 40.7893 112.455 43.9283 110.946 46.751C109.486 49.5737 107.467 51.8123 104.887 53.467C102.357 55.073 99.4854 55.876 96.2734 55.876ZM98.3174 52.299C101.043 52.299 103.208 51.204 104.814 49.014C106.42 46.7753 107.223 43.758 107.223 39.962C107.223 37.042 106.785 34.4627 105.909 32.224C105.033 29.9853 103.817 28.2333 102.259 26.968C100.702 25.7027 98.9014 25.07 96.8574 25.07C94.1321 25.07 91.9664 26.1893 90.3604 28.428C88.7544 30.6667 87.9514 33.7083 87.9514 37.553C87.9514 40.473 88.3894 43.0523 89.2654 45.291C90.1414 47.481 91.3581 49.2087 92.9154 50.474C94.4727 51.6907 96.2734 52.299 98.3174 52.299Z" fill="#0E0E0E"/>
</svg>
