<svg width="116" height="116" viewBox="0 0 116 116" fill="none" xmlns="http://www.w3.org/2000/svg">
<rect width="116" height="116" fill="white"/>
<path d="M48.274 51.07C46.0833 51.07 43.9633 52.2007 41.914 54.462C39.8647 56.7233 38.204 59.656 36.932 63.26C35.66 66.864 35.024 70.6447 35.024 74.602C35.024 78.9833 35.6953 82.4813 37.038 85.096C38.3807 87.7107 40.1473 89.018 42.338 89.018C44.458 89.018 46.578 88.17 48.698 86.474C50.8887 84.7073 52.62 82.4813 53.892 79.796L55.376 79.902L56.966 82.446C55.6233 84.9193 53.998 87.1453 52.09 89.124C50.182 91.032 48.168 92.5513 46.048 93.682C43.9987 94.742 41.9493 95.272 39.9 95.272C36.084 95.272 33.0807 93.7173 30.89 90.608C28.6993 87.428 27.604 83.1527 27.604 77.782C27.604 73.6127 28.2753 69.5847 29.618 65.698C30.9607 61.7407 32.7627 58.2073 35.024 55.098C37.356 51.918 39.9353 49.4093 42.762 47.572C45.5887 45.7347 48.5213 44.816 51.56 44.816C53.3973 44.816 55.0933 45.028 56.648 45.452C58.2733 45.8053 59.5807 46.3353 60.57 47.042L61.1 48.208L57.496 55.31L56.012 55.628C53.8213 52.5893 51.242 51.07 48.274 51.07ZM73.2635 87.64C73.8288 87.64 74.6062 87.2513 75.5955 86.474C76.5848 85.6967 78.5988 84.0007 81.6375 81.386L82.9095 81.492L84.2875 84.036C81.8848 86.4387 79.6942 88.488 77.7155 90.184C75.8075 91.88 74.1468 93.152 72.7335 94C71.3908 94.848 70.2955 95.272 69.4475 95.272C67.2568 95.272 66.1615 94.2473 66.1615 92.198C66.1615 91.9153 66.3382 90.5727 66.6915 88.17C67.0448 85.7673 67.5042 82.6933 68.0695 78.948C68.7055 75.132 69.3768 70.9627 70.0835 66.44C70.7902 61.9173 71.4968 57.3593 72.2035 52.766C72.9102 48.1727 73.5462 43.9327 74.1115 40.046C74.7475 36.0887 75.2422 32.8027 75.5955 30.188C75.9488 27.5027 76.1255 25.842 76.1255 25.206C76.1255 22.3793 74.6415 20.966 71.6735 20.966H67.3275L67.9635 16.938C69.5888 16.938 71.3555 16.9027 73.2635 16.832C75.2422 16.7613 77.1148 16.6907 78.8815 16.62C80.7188 16.5493 82.2028 16.4787 83.3335 16.408C84.4642 16.3373 85.0295 16.302 85.0295 16.302L85.9835 17.574C85.9835 17.574 85.7362 18.634 85.2415 20.754C84.8175 22.874 84.2168 25.8067 83.4395 29.552C82.6622 33.2267 81.7788 37.4313 80.7895 42.166C79.8708 46.83 78.9168 51.7767 77.9275 57.006C76.9382 62.2353 76.0195 67.4293 75.1715 72.588C74.3235 77.7467 73.5815 82.6227 72.9455 87.216L73.2635 87.64Z" fill="black"/>
</svg>
