<svg width="50" height="50" viewBox="0 0 50 50" fill="none" xmlns="http://www.w3.org/2000/svg">
<rect width="50" height="50" fill="white"/>
<path d="M20.305 22.775C19.375 22.775 18.475 23.255 17.605 24.215C16.735 25.175 16.03 26.42 15.49 27.95C14.95 29.48 14.68 31.085 14.68 32.765C14.68 34.625 14.965 36.11 15.535 37.22C16.105 38.33 16.855 38.885 17.785 38.885C18.685 38.885 19.585 38.525 20.485 37.805C21.415 37.055 22.15 36.11 22.69 34.97L23.32 35.015L23.995 36.095C23.425 37.145 22.735 38.09 21.925 38.93C21.115 39.74 20.26 40.385 19.36 40.865C18.49 41.315 17.62 41.54 16.75 41.54C15.13 41.54 13.855 40.88 12.925 39.56C11.995 38.21 11.53 36.395 11.53 34.115C11.53 32.345 11.815 30.635 12.385 28.985C12.955 27.305 13.72 25.805 14.68 24.485C15.67 23.135 16.765 22.07 17.965 21.29C19.165 20.51 20.41 20.12 21.7 20.12C22.48 20.12 23.2 20.21 23.86 20.39C24.55 20.54 25.105 20.765 25.525 21.065L25.75 21.56L24.22 24.575L23.59 24.71C22.66 23.42 21.565 22.775 20.305 22.775ZM30.9138 38.3C31.1538 38.3 31.4838 38.135 31.9038 37.805C32.3238 37.475 33.1788 36.755 34.4688 35.645L35.0088 35.69L35.5938 36.77C34.5738 37.79 33.6438 38.66 32.8038 39.38C31.9938 40.1 31.2888 40.64 30.6888 41C30.1188 41.36 29.6538 41.54 29.2938 41.54C28.3638 41.54 27.8988 41.105 27.8988 40.235C27.8988 40.115 27.9738 39.545 28.1238 38.525C28.2738 37.505 28.4688 36.2 28.7088 34.61C28.9788 32.99 29.2638 31.22 29.5638 29.3C29.8638 27.38 30.1638 25.445 30.4638 23.495C30.7638 21.545 31.0338 19.745 31.2738 18.095C31.5438 16.415 31.7538 15.02 31.9038 13.91C32.0538 12.77 32.1288 12.065 32.1288 11.795C32.1288 10.595 31.4988 9.995 30.2388 9.995H28.3938L28.6638 8.285C29.3538 8.285 30.1038 8.27 30.9138 8.24C31.7538 8.21 32.5488 8.18 33.2988 8.15C34.0788 8.12 34.7088 8.09 35.1888 8.06C35.6688 8.03 35.9088 8.015 35.9088 8.015L36.3138 8.555C36.3138 8.555 36.2088 9.005 35.9988 9.905C35.8188 10.805 35.5638 12.05 35.2338 13.64C34.9038 15.2 34.5288 16.985 34.1088 18.995C33.7188 20.975 33.3138 23.075 32.8938 25.295C32.4738 27.515 32.0838 29.72 31.7238 31.91C31.3638 34.1 31.0488 36.17 30.7788 38.12L30.9138 38.3Z" fill="#0E0E0E"/>
</svg>
